{"title":"Star.Wars.Episode.V-The.Empire.Strikes.Back.1980.720p.BRRip.x264","uid":6785579,"size":731065372,"categoryP":"video","categoryS":"hd___movies","magnet":"?xt=urn:btih:e1e12d8a57c04d0e21a12b44288d1c2cc51ee6b3&amp;dn=Star.Wars.Episode.V-The.Empire.Strikes.Back.1980.720p.BRRip.x264&amp;tr=udp%3A%2F%2Ftracker.openbittorrent.com%3A80&amp;tr=udp%3A%2F%2Fopen.demonii.com%3A1337&amp;tr=udp%3A%2F%2Ftracker.coppersurfer.tk%3A6969&amp;tr=udp%3A%2F%2Fexodus.desync.com%3A6969","seeders":0,"leechers":1,"uploader":"anoXmous","files":-1,"time":1320075802,"description":"Star.Wars.Episode.V-The.Empire.Strikes.Back.1980.720p.BRRip.x264.ogg.mkv-anoXmous\n\nFormat                           : Matroska\nFormat version                   : Version 2\nFile size                        : 697 MiB\nDuration                         : 2h 7mn\nOverall bit rate mode            : Variable\nOverall bit rate                 : 765 Kbps\nWriting application              : mkvmerge v5.0.1 ('Es ist Sommer') built on Oct  9 2011 11:55:43\nWriting library                  : libebml v1.2.2 + libmatroska v1.3.0\n\nVideo\nID                               : 1\nFormat                           : AVC\nFormat/Info                      : Advanced Video Codec\nFormat profile                   : &lt;a class=&quot;__cf_email__&quot; href=&quot;/cdn-cgi/l/email-protection&quot; data-cfemail=&quot;c58daca2ad8589f1ebf4&quot;&gt;[email&amp;#160;protected]&lt;/a&gt;&lt;script cf-hash='f9e31' type=&quot;text/javascript&quot;&gt;\n/* &lt;![CDATA[ */!function(){try{var t=&quot;currentScript&quot;in document?document.currentScript:function(){for(var t=document.getElementsByTagName(&quot;script&quot;),e=t.length;e--;)if(t[e].getAttribute(&quot;cf-hash&quot;))return t[e]}();if(t&amp;&amp;t.previousSibling){var e,r,n,i,c=t.previousSibling,a=c.getAttribute(&quot;data-cfemail&quot;);if(a){for(e=&quot;&quot;,r=parseInt(a.substr(0,2),16),n=2;a.length-n;n+=2)i=parseInt(a.substr(n,2),16)^r,e+=String.fromCharCode(i);e=document.createTextNode(e),c.parentNode.replaceChild(e,c)}}}catch(u){}}();/* ]]&gt; */&lt;/script&gt;\nFormat settings, CABAC           : Yes\nFormat settings, ReFrames        : 4 frames\nCodec ID                         : V_MPEG4/ISO/AVC\nDuration                         : 2h 7mn\nBit rate                         : 704 Kbps\nWidth                            : 1 280 pixels\nHeight                           : 544 pixels\nDisplay aspect ratio             : 2.35:1\nFrame rate                       : 23.976 fps\nColor space                      : YUV\nChroma subsampling               : 4:2:0\nBit depth                        : 8 bits\nScan type                        : Progressive\nBits/(Pixel*Frame)               : 0.042\nStream size                      : 625 MiB (90%)\nWriting library                  : x264 core 119 r2106 07efeb4\nEncoding settings                : cabac=1 / ref=3 / deblock=1:0:0 / analyse=0x3:0x113 / me=hex / subme=7 / psy=1 / psy_rd=1.00:0.00 / mixed_ref=1 / me_range=16 / chroma_me=1 / trellis=1 / 8x8dct=1 / cqm=0 / deadzone=21,11 / fast_pskip=1 / chroma_qp_offset=-2 / threads=3 / sliced_threads=0 / nr=0 / decimate=1 / interlaced=0 / bluray_compat=0 / constrained_intra=0 / bframes=4 / b_pyramid=2 / b_adapt=1 / b_bias=0 / direct=1 / weightb=1 / open_gop=0 / weightp=2 / keyint=250 / keyint_min=23 / scenecut=40 / intra_refresh=0 / rc_lookahead=40 / rc=2pass / mbtree=1 / bitrate=704 / ratetol=1.0 / qcomp=0.60 / qpmin=0 / qpmax=69 / qpstep=4 / cplxblur=20.0 / qblur=0.5 / ip_ratio=1.40 / aq=1:1.00\n\nAudio\nID                               : 2\nFormat                           : Vorbis\nFormat settings, Floor           : 1\nCodec ID                         : A_VORBIS\nDuration                         : 2h 7mn\nBit rate mode                    : Variable\nBit rate                         : 64.0 Kbps\nChannel(s)                       : 2 channels\nSampling rate                    : 48.0 KHz\nCompression mode                 : Lossy\nStream size                      : 58.3 MiB (8%)\nWriting library                  : aoTuV 20110424 (UTC 2011-04-24)\nLanguage                         : English\n\nText\nID                               : 3\nFormat                           : UTF-8\nCodec ID                         : S_TEXT/UTF8\nCodec ID/Info                    : UTF-8 Plain Text\nLanguage                         : Swedish\n &lt;a href=&quot;\nhttp://www.imdb.com/title/tt0080684/&quot; rel=&quot;nofollow&quot; target=&quot;_NEW&quot;&gt;\nhttp://www.imdb.com/title/tt0080684/&lt;/a&gt;","torrent":{"xt":"urn:btih:e1e12d8a57c04d0e21a12b44288d1c2cc51ee6b3","amp;dn":"Star.Wars.Episode.V-The.Empire.Strikes.Back.1980.720p.BRRip.x264","amp;tr":["udp%3A%2F%2Ftracker.openbittorrent.com%3A80","udp%3A%2F%2Fopen.demonii.com%3A1337","udp%3A%2F%2Ftracker.coppersurfer.tk%3A6969","udp%3A%2F%2Fexodus.desync.com%3A6969"],"infoHash":"e1e12d8a57c04d0e21a12b44288d1c2cc51ee6b3","infoHashBuffer":{"type":"Buffer","data":[225,225,45,138,87,192,77,14,33,161,43,68,40,141,28,44,197,30,230,179]},"announce":[],"urlList":[]}}